<svg xmlns="http://www.w3.org/2000/svg" viewBox="0 0 46 78" enable-background="new 0 0 46 78"><style type="text/css">.st0{fill:#D9D9D9;} .st1{fill:url(#SVGID_1_);} .st2{fill:url(#SVGID_2_);} .st3{fill:url(#SVGID_3_);} .st4{fill:url(#SVGID_4_);} .st5{fill:url(#SVGID_5_);} .st6{fill:url(#SVGID_6_);} .st7{fill:url(#SVGID_7_);} .st8{fill:#A6A6A6;} .st9{fill:#787878;} .st10{fill:#AEFF12;} .st11{fill:url(#SVGID_8_);} .st12{fill:url(#SVGID_9_);} .st13{fill:url(#SVGID_10_);} .st14{fill:url(#SVGID_11_);} .st15{fill:url(#SVGID_12_);} .st16{fill:url(#SVGID_13_);} .st17{fill:url(#SVGID_14_);} .st18{fill:url(#SVGID_15_);} .st19{fill:#1A1A1A;} .st20{fill:url(#SVGID_16_);} .st21{fill:url(#SVGID_17_);} .st22{fill:url(#SVGID_18_);} .st23{fill:url(#SVGID_19_);} .st24{fill:url(#SVGID_20_);} .st25{fill:#DC5C01;} .st26{fill:#EB7E2E;} .st27{fill:url(#SVGID_21_);} .st28{fill:url(#SVGID_22_);} .st29{fill:url(#SVGID_23_);} .st30{fill:url(#SVGID_24_);} .st31{fill:url(#SVGID_25_);} .st32{fill:url(#SVGID_26_);} .st33{fill:url(#SVGID_27_);} .st34{fill:url(#SVGID_28_);} .st35{fill:url(#SVGID_29_);} .st36{fill:url(#SVGID_30_);} .st37{fill:url(#SVGID_31_);} .st38{fill:url(#SVGID_32_);} .st39{fill:url(#SVGID_33_);} .st40{fill:url(#SVGID_34_);} .st41{fill:url(#SVGID_35_);} .st42{fill:url(#SVGID_36_);}</style><linearGradient id="SVGID_1_" gradientUnits="userSpaceOnUse" x1="23" y1="73.43" x2="23" y2="4.57"><stop offset="0" stop-color="#8BFF00"/><stop offset=".327" stop-color="#CCFF20"/><stop offset="1" stop-color="#79E900"/></linearGradient><path class="st1" d="M23.5 73.4h-1c-6.6 0-12-5.4-12-12v-44.8c0-6.6 5.4-12 12-12h1c6.6 0 12 5.4 12 12v44.9c0 6.5-5.4 11.9-12 11.9z"/><linearGradient id="SVGID_2_" gradientUnits="userSpaceOnUse" x1="23" y1="26.051" x2="23" y2="30.124"><stop offset="0" stop-color="#7800FC"/><stop offset="1" stop-color="#6800FC"/></linearGradient><path class="st2" d="M3.5 30.1h38.9c1.1 0 2-.9 2-2s-.9-2-2-2h-38.9c-1.1 0-2 .9-2 2s.9 2 2 2z"/><linearGradient id="SVGID_3_" gradientUnits="userSpaceOnUse" x1="23" y1="19.67" x2="23" y2="23.743"><stop offset="0" stop-color="#7800FC"/><stop offset="1" stop-color="#6800FC"/></linearGradient><path class="st3" d="M3.5 23.7h38.9c1.1 0 2-.9 2-2s-.9-2-2-2h-38.9c-1.1 0-2 .9-2 2s.9 2 2 2z"/><linearGradient id="SVGID_4_" gradientUnits="userSpaceOnUse" x1="23" y1="13.67" x2="23" y2="17.743"><stop offset="0" stop-color="#7800FC"/><stop offset="1" stop-color="#6800FC"/></linearGradient><path class="st4" d="M3.5 17.7h38.9c1.1 0 2-.9 2-2s-.9-2-2-2h-38.9c-1.1 0-2 .9-2 2s.9 2 2 2z"/></svg>