<svg xmlns="http://www.w3.org/2000/svg" viewBox="0 0 320 185" enable-background="new 0 0 320 185"><style type="text/css">.st0{fill:#D9D9D9;} .st1{fill:url(#SVGID_1_);} .st2{fill:url(#SVGID_2_);} .st3{fill:url(#SVGID_3_);} .st4{fill:url(#SVGID_4_);} .st5{fill:url(#SVGID_5_);} .st6{fill:url(#SVGID_6_);} .st7{fill:url(#SVGID_7_);} .st8{fill:#A6A6A6;} .st9{fill:#787878;} .st10{fill:#AEFF12;} .st11{fill:url(#SVGID_8_);} .st12{fill:url(#SVGID_9_);} .st13{fill:url(#SVGID_10_);} .st14{fill:url(#SVGID_11_);} .st15{fill:url(#SVGID_12_);} .st16{fill:url(#SVGID_13_);} .st17{fill:url(#SVGID_14_);} .st18{fill:url(#SVGID_15_);} .st19{fill:#1A1A1A;} .st20{fill:url(#SVGID_16_);} .st21{fill:url(#SVGID_17_);} .st22{fill:url(#SVGID_18_);} .st23{fill:url(#SVGID_19_);} .st24{fill:url(#SVGID_20_);} .st25{fill:#DC5C01;} .st26{fill:#EB7E2E;} .st27{fill:url(#SVGID_21_);} .st28{fill:url(#SVGID_22_);} .st29{fill:url(#SVGID_23_);} .st30{fill:url(#SVGID_24_);} .st31{fill:url(#SVGID_25_);} .st32{fill:url(#SVGID_26_);} .st33{fill:url(#SVGID_27_);} .st34{fill:url(#SVGID_28_);} .st35{fill:url(#SVGID_29_);} .st36{fill:url(#SVGID_30_);} .st37{fill:url(#SVGID_31_);} .st38{fill:url(#SVGID_32_);} .st39{fill:url(#SVGID_33_);} .st40{fill:url(#SVGID_34_);} .st41{fill:url(#SVGID_35_);} .st42{fill:url(#SVGID_36_);}</style><path class="st19" d="M102.1 117.4h116.5v18.8h-116.5z"/><linearGradient id="SVGID_1_" gradientUnits="userSpaceOnUse" x1="34.667" y1="208.179" x2="34.667" y2="155.179"><stop offset=".001" stop-color="#DB5B00"/><stop offset=".7" stop-color="#ED8134"/><stop offset="1" stop-color="#DB5B00"/></linearGradient><path class="st1" d="M19.4 155.2h38.3v53h-46v-45.8z"/><linearGradient id="SVGID_2_" gradientUnits="userSpaceOnUse" x1="64.669" y1="214.828" x2="64.669" y2="148.174"><stop offset=".001" stop-color="#DB5B00"/><stop offset=".7" stop-color="#ED8134"/><stop offset="1" stop-color="#DB5B00"/></linearGradient><path class="st2" d="M57.1 148.2h15.1v66.7h-15.1z"/><linearGradient id="SVGID_3_" gradientUnits="userSpaceOnUse" x1="284.667" y1="208.179" x2="284.667" y2="155.179"><stop offset=".001" stop-color="#DB5B00"/><stop offset=".7" stop-color="#ED8134"/><stop offset="1" stop-color="#DB5B00"/></linearGradient><path class="st3" d="M300.8 155.2h-39.1v53h46v-45.8z"/><linearGradient id="SVGID_4_" gradientUnits="userSpaceOnUse" x1="255.7" y1="214.828" x2="255.7" y2="148.174"><stop offset=".001" stop-color="#DB5B00"/><stop offset=".7" stop-color="#ED8134"/><stop offset="1" stop-color="#DB5B00"/></linearGradient><path class="st4" d="M248.1 148.2h15.1v66.7h-15.1z"/><linearGradient id="SVGID_5_" gradientUnits="userSpaceOnUse" x1="160.333" y1="234.12" x2="160.333" y2="131.939"><stop offset="0" stop-color="#1A1A1A"/><stop offset="1" stop-color="#050505"/></linearGradient><path class="st5" d="M232.1 234.1h-143.5c-9.4 0-17-7.6-17-17v-68.1c0-9.4 7.6-17 17-17h143.4c9.4 0 17 7.6 17 17v68.1c.1 9.4-7.5 17-16.9 17z"/><path class="st9" d="M177.1 206.4h54.7c3.9 0 7-3.2 7-7v-49.9c0-3.8-3.1-7-7-7h-54.7c-3.9 0-7 3.2-7 7v49.9c0 3.9 3.2 7 7 7z"/><path class="st8" d="M234.7 198c0 2.9-2.3 5.2-5.2 5.2h-50.6c-2.9 0-5.2-2.3-5.2-5.2v-46.6c0-2.9 2.3-5.2 5.2-5.2h50.6c2.9 0 5.2 2.3 5.2 5.2v46.6z"/><path class="st25" d="M127 166.9h8.6c4.7 0 8.5-3.8 8.5-8.5v-7.4c0-4.7-3.8-8.5-8.5-8.5h-8.6c-4.7 0-8.5 3.8-8.5 8.5v7.4c0 4.7 3.8 8.5 8.5 8.5z"/><path class="st26" d="M90.8 166.9h8.6c4.7 0 8.5-3.8 8.5-8.5v-7.4c0-4.7-3.8-8.5-8.5-8.5h-8.6c-4.7 0-8.5 3.8-8.5 8.5v7.4c0 4.7 3.8 8.5 8.5 8.5z"/><radialGradient id="SVGID_6_" cx="182.943" cy="152.632" r="4.619" gradientUnits="userSpaceOnUse"><stop offset="0" stop-color="#1A1A1A"/><stop offset="1" stop-color="#050505"/></radialGradient><circle class="st6" cx="182.9" cy="154.5" r="4.6"/><radialGradient id="SVGID_7_" cx="225.532" cy="152.632" r="4.619" gradientUnits="userSpaceOnUse"><stop offset="0" stop-color="#1A1A1A"/><stop offset="1" stop-color="#050505"/></radialGradient><circle class="st7" cx="225.5" cy="154.5" r="4.6"/><path class="st19" d="M227 20.2h-134c-5 0-9.4 3.8-9.4 8.8v84.2c0 5 4.4 9 9.4 9h134c5 0 8.7-4 8.7-9v-84.2c0-5-3.8-8.8-8.7-8.8z"/><linearGradient id="SVGID_8_" gradientUnits="userSpaceOnUse" x1="159.667" y1="116.179" x2="159.667" y2="26.179"><stop offset="0" stop-color="#1A1A1A"/><stop offset="1" stop-color="#050505"/></linearGradient><path class="st11" d="M93 116.2c-1.7 0-3.4-1.4-3.4-3v-84.2c0-1.5 1.6-2.8 3.4-2.8h134c1.6 0 2.7 1.1 2.7 2.8v84.2c0 1.5-.9 3-2.7 3h-134z"/><path class="st0" d="M157.7 44.2h4v55h-4zM127.7 97.2h63v4h-63zM118.7 51.2h81v4h-81zM83.7 69.2h152v4h-152z"/><linearGradient id="SVGID_9_" gradientUnits="userSpaceOnUse" x1="128.167" y1="103.929" x2="128.167" y2="94.429"><stop offset="0" stop-color="#822303"/><stop offset="1" stop-color="#FC3F00"/></linearGradient><circle class="st12" cx="128.2" cy="99.2" r="4.8"/><linearGradient id="SVGID_10_" gradientUnits="userSpaceOnUse" x1="191.167" y1="103.929" x2="191.167" y2="94.429"><stop offset="0" stop-color="#822303"/><stop offset="1" stop-color="#FC3F00"/></linearGradient><circle class="st13" cx="191.2" cy="99.2" r="4.8"/><linearGradient id="SVGID_11_" gradientUnits="userSpaceOnUse" x1="175.667" y1="103.929" x2="175.667" y2="94.429"><stop offset="0" stop-color="#822303"/><stop offset="1" stop-color="#FC3F00"/></linearGradient><circle class="st14" cx="175.7" cy="99.2" r="4.8"/><linearGradient id="SVGID_12_" gradientUnits="userSpaceOnUse" x1="159.667" y1="103.929" x2="159.667" y2="94.429"><stop offset="0" stop-color="#822303"/><stop offset="1" stop-color="#FC3F00"/></linearGradient><circle class="st15" cx="159.7" cy="99.2" r="4.8"/><linearGradient id="SVGID_13_" gradientUnits="userSpaceOnUse" x1="143.667" y1="103.929" x2="143.667" y2="94.429"><stop offset="0" stop-color="#822303"/><stop offset="1" stop-color="#FC3F00"/></linearGradient><circle class="st16" cx="143.7" cy="99.2" r="4.8"/><path class="st8" d="M127.7 38.2c4 0 5.8 3 5.8 6h52.4c0-3 2.8-6.1 6.8-6.1v-15.9c-1-10-14.6-17.8-32.6-17.8s-32.4 7.8-32.4 17.8v16z"/><path class="st9" d="M136 41.2c-.8-2.5-2.6-4.6-5.4-5.5v-13.5c0-8 13.5-14.8 29.4-14.8 15.7 0 28.6 6.6 29.6 14.9v13.2c-3 .9-5.2 3.1-6.2 5.7v3h-47.4v-3z"/><linearGradient id="SVGID_14_" gradientUnits="userSpaceOnUse" x1="195.69" y1="62.457" x2="195.69" y2="44.725"><stop offset="0" stop-color="#822303"/><stop offset="1" stop-color="#FC3F00"/></linearGradient><circle class="st17" cx="195.7" cy="53.6" r="8.9"/><linearGradient id="SVGID_15_" gradientUnits="userSpaceOnUse" x1="123.644" y1="62.457" x2="123.644" y2="44.725"><stop offset="0" stop-color="#822303"/><stop offset="1" stop-color="#FC3F00"/></linearGradient><circle class="st18" cx="123.6" cy="53.6" r="8.9"/><linearGradient id="SVGID_16_" gradientUnits="userSpaceOnUse" x1="227.285" y1="86.409" x2="227.285" y2="55.766"><stop offset="0" stop-color="#822303"/><stop offset="1" stop-color="#FC3F00"/></linearGradient><path class="st20" d="M218.6 55.8h17.4v30.6h-17.4z"/><linearGradient id="SVGID_17_" gradientUnits="userSpaceOnUse" x1="92.715" y1="86.409" x2="92.715" y2="55.766"><stop offset="0" stop-color="#822303"/><stop offset="1" stop-color="#FC3F00"/></linearGradient><path class="st21" d="M84 55.8h17.4v30.6h-17.4z"/></svg>