<svg xmlns="http://www.w3.org/2000/svg" viewBox="0 0 125 170" enable-background="new 0 0 125 170"><style type="text/css">.st0{fill:#D9D9D9;} .st1{fill:url(#SVGID_1_);} .st2{fill:url(#SVGID_2_);} .st3{fill:url(#SVGID_3_);} .st4{fill:url(#SVGID_4_);} .st5{fill:url(#SVGID_5_);} .st6{fill:url(#SVGID_6_);} .st7{fill:url(#SVGID_7_);} .st8{fill:#A6A6A6;} .st9{fill:#787878;} .st10{fill:#AEFF12;} .st11{fill:url(#SVGID_8_);} .st12{fill:url(#SVGID_9_);} .st13{fill:url(#SVGID_10_);} .st14{fill:url(#SVGID_11_);} .st15{fill:url(#SVGID_12_);} .st16{fill:url(#SVGID_13_);} .st17{fill:url(#SVGID_14_);} .st18{fill:url(#SVGID_15_);} .st19{fill:#1A1A1A;} .st20{fill:url(#SVGID_16_);} .st21{fill:url(#SVGID_17_);} .st22{fill:url(#SVGID_18_);} .st23{fill:url(#SVGID_19_);} .st24{fill:url(#SVGID_20_);} .st25{fill:#DC5C01;} .st26{fill:#EB7E2E;} .st27{fill:url(#SVGID_21_);} .st28{fill:url(#SVGID_22_);} .st29{fill:url(#SVGID_23_);} .st30{fill:url(#SVGID_24_);} .st31{fill:url(#SVGID_25_);} .st32{fill:url(#SVGID_26_);} .st33{fill:url(#SVGID_27_);} .st34{fill:url(#SVGID_28_);} .st35{fill:url(#SVGID_29_);} .st36{fill:url(#SVGID_30_);} .st37{fill:url(#SVGID_31_);} .st38{fill:url(#SVGID_32_);} .st39{fill:url(#SVGID_33_);} .st40{fill:url(#SVGID_34_);} .st41{fill:url(#SVGID_35_);} .st42{fill:url(#SVGID_36_);}</style><path class="st0" d="M35.9 113.1c-14.1 0-19.9-5.8-19.9-20v-88.6c0-2.5 2-4.5 4.5-4.5s4.5 2 4.5 4.5v88.6c0 9.4 1.6 11 10.9 11 2.5 0 4.5 2 4.5 4.5s-2.1 4.5-4.5 4.5z"/><linearGradient id="SVGID_1_" gradientUnits="userSpaceOnUse" x1="20.336" y1="26.469" x2="20.336" y2="18.223"><stop offset="0" stop-color="#A6A6A6"/><stop offset=".271" stop-color="#A8A8A8"/><stop offset=".417" stop-color="#B0B0B0"/><stop offset=".534" stop-color="#BEBEBE"/><stop offset=".634" stop-color="#D1D1D1"/><stop offset=".725" stop-color="#EAEAEA"/><stop offset=".728" stop-color="#EBEBEB"/><stop offset="1" stop-color="#A6A6A6"/></linearGradient><path class="st1" d="M32.9 26.5h-25.1c-2.3 0-4.1-1.9-4.1-4.1 0-2.3 1.9-4.1 4.1-4.1h25.1c2.3 0 4.1 1.9 4.1 4.1 0 2.2-1.8 4.1-4.1 4.1z"/><linearGradient id="SVGID_2_" gradientUnits="userSpaceOnUse" x1="20.336" y1="38.322" x2="20.336" y2="30.076"><stop offset="0" stop-color="#A6A6A6"/><stop offset=".271" stop-color="#A8A8A8"/><stop offset=".417" stop-color="#B0B0B0"/><stop offset=".534" stop-color="#BEBEBE"/><stop offset=".634" stop-color="#D1D1D1"/><stop offset=".725" stop-color="#EAEAEA"/><stop offset=".728" stop-color="#EBEBEB"/><stop offset="1" stop-color="#A6A6A6"/></linearGradient><path class="st2" d="M26.7 38.3h-12.7c-2.3 0-4.1-1.9-4.1-4.1 0-2.3 1.9-4.1 4.1-4.1h12.7c2.3 0 4.1 1.9 4.1 4.1 0 2.3-1.8 4.1-4.1 4.1z"/><linearGradient id="SVGID_3_" gradientUnits="userSpaceOnUse" x1="20.336" y1="14.616" x2="20.336" y2="6.37"><stop offset="0" stop-color="#A6A6A6"/><stop offset=".271" stop-color="#A8A8A8"/><stop offset=".417" stop-color="#B0B0B0"/><stop offset=".534" stop-color="#BEBEBE"/><stop offset=".634" stop-color="#D1D1D1"/><stop offset=".725" stop-color="#EAEAEA"/><stop offset=".728" stop-color="#EBEBEB"/><stop offset="1" stop-color="#A6A6A6"/></linearGradient><path class="st3" d="M26.7 14.6h-12.7c-2.3 0-4.1-1.9-4.1-4.1 0-2.3 1.9-4.1 4.1-4.1h12.7c2.3 0 4.1 1.9 4.1 4.1 0 2.3-1.8 4.1-4.1 4.1z"/><linearGradient id="SVGID_4_" gradientUnits="userSpaceOnUse" x1="45.282" y1="127.603" x2="45.282" y2="88.882"><stop offset="0" stop-color="#A6A6A6"/><stop offset=".271" stop-color="#A8A8A8"/><stop offset=".417" stop-color="#B0B0B0"/><stop offset=".534" stop-color="#BEBEBE"/><stop offset=".634" stop-color="#D1D1D1"/><stop offset=".725" stop-color="#EAEAEA"/><stop offset=".728" stop-color="#EBEBEB"/><stop offset="1" stop-color="#A6A6A6"/></linearGradient><path class="st4" d="M40.9 88.9h8.8v38.7h-8.8z"/><linearGradient id="SVGID_5_" gradientUnits="userSpaceOnUse" x1="36.492" y1="123.564" x2="36.492" y2="92.921"><stop offset="0" stop-color="#787878"/><stop offset=".305" stop-color="#7A7A7A"/><stop offset=".47" stop-color="#828282"/><stop offset=".601" stop-color="#909090"/><stop offset=".714" stop-color="#A3A3A3"/><stop offset=".728" stop-color="#A6A6A6"/><stop offset="1" stop-color="#787878"/></linearGradient><path class="st5" d="M32.1 92.9h8.8v30.6h-8.8z"/><radialGradient id="SVGID_6_" cx="124.545" cy="41.921" r="20.549" gradientUnits="userSpaceOnUse"><stop offset="0" stop-color="#A6A6A6"/><stop offset="1" stop-color="#787878"/></radialGradient><path class="st6" d="M125 41.7c-18 0-32.5 8-32.5 17.8 0 9.9 14.5 17.8 32.5 17.8v-35.6z"/><radialGradient id="SVGID_7_" cx="124.545" cy="41.921" r="20.549" gradientUnits="userSpaceOnUse"><stop offset="0" stop-color="#A6A6A6"/><stop offset="1" stop-color="#787878"/></radialGradient><path class="st7" d="M125 41.7c-18 0-32.5 8-32.5 17.8 0 9.9 14.5 17.8 32.5 17.8v-35.6z"/><linearGradient id="SVGID_8_" gradientUnits="userSpaceOnUse" x1="663.002" y1="108.361" x2="739.002" y2="108.361" gradientTransform="matrix(-1 0 0 1 788.005 0)"><stop offset="0" stop-color="#1A1A1A"/><stop offset="1" stop-color="#050505"/></linearGradient><path class="st11" d="M58.4 57.4h66.6v102h-66.6c-5 0-9.4-3.9-9.4-8.8v-84.3c0-5 4.4-8.9 9.4-8.9z"/><circle class="st8" cx="89.3" cy="90.9" r="21.1"/><circle class="st9" cx="89.3" cy="90.9" r="16.7"/><circle class="st8" cx="89.3" cy="90.9" r="8.9"/><circle class="st10" cx="89.3" cy="90.9" r="4.8"/><path class="st8" d="M82 130.8h43v11.9h-43z"/><path class="st9" d="M85.8 135.6h39.2v4.7h-39.2z"/></svg>